<svg width="10" height="10" viewBox="0 0 10 10" fill="none" xmlns="http://www.w3.org/2000/svg">
    <path d="M4.99992 8.74999C4.47364 8.30109 3.98583 7.80896 3.54159 7.27874C2.87492 6.48249 2.08325 5.29666 2.08325 4.16666C2.08266 2.98647 2.79336 1.92224 3.8837 1.47057C4.97404 1.01891 6.22911 1.26884 7.06325 2.10374C7.61178 2.64983 7.91905 3.39265 7.9166 4.16666C7.9166 5.29666 7.12492 6.48249 6.45825 7.27874C6.01401 7.80896 5.5262 8.30109 4.99992 8.74999ZM4.99992 2.91666C4.55334 2.91666 4.14068 3.15491 3.91739 3.54166C3.6941 3.92841 3.6941 4.40491 3.91739 4.79166C4.14068 5.17841 4.55334 5.41666 4.99992 5.41666C5.69028 5.41666 6.24992 4.85701 6.24992 4.16666C6.24992 3.4763 5.69028 2.91666 4.99992 2.91666Z" fill="#D9DFE8"/>
</svg>
