<svg width="10" height="10" viewBox="0 0 10 10" fill="none" xmlns="http://www.w3.org/2000/svg">
    <path d="M7.9157 8.33333C4.36086 8.33837 1.66295 5.60813 1.66675 2.08438C1.66675 1.85427 1.8533 1.66667 2.08342 1.66667H3.18315C3.38964 1.66667 3.56505 1.81839 3.59537 2.02264C3.66804 2.51217 3.81057 2.98874 4.01862 3.4378L4.06143 3.53022C4.12097 3.65872 4.08061 3.8114 3.96536 3.8937C3.62479 4.13692 3.49463 4.62649 3.75995 5.00849C4.09291 5.48785 4.5126 5.90746 4.99186 6.24026C5.37384 6.50551 5.86333 6.37537 6.10654 6.03486C6.1889 5.91955 6.34167 5.87917 6.47025 5.93873L6.56224 5.98135C7.01133 6.18938 7.48793 6.33191 7.97751 6.40457C8.18177 6.43488 8.33341 6.61029 8.33341 6.81678V7.91666C8.33341 8.14678 8.14641 8.33333 7.91629 8.33333L7.9157 8.33333Z" fill="#E2E6EE"/>
</svg>
